# xmcd CD database file generated by Grip 2.95
# 
# Track frame offsets:
#       150
#       14080
#       48400
#       65178
#       100263
#       139860
#       163998
#       199225
#       214750
#       243603
#       271563
#       326230
# 
# Disc length: 4775 seconds
# 
# Revision: 3
# Processed by: cddbd v1.4b41PL3 Copyright (c) Steve Scherf et al.
# Submitted via: Grip 2.95
# 
DISCID=bf12a50c
DTITLE=Jimmi Hendrix - Jimmi Hendrix: blues
DYEAR=1900
DGENRE=
TTITLE0=Hear My Train Comin' (acoustic)
TTITLE1=Born Under A Bad Sign
TTITLE2=Red House
TTITLE3=Catfish Blues
TTITLE4=Vodoo Chile Blues
TTITLE5=Mannish Boy
TTITLE6=Once I Had A Woman
TTITLE7=Bleeding Heart
TTITLE8=Jelly 292
TTITLE9=Electric Church Red House
TTITLE10=Hear My Train Comin' (acoustic) (2)
TTITLE11=Spannish Castle Magic
EXTD=
EXTT0=
EXTT1=
EXTT2=
EXTT3=
EXTT4=
EXTT5=
EXTT6=
EXTT7=
EXTT8=
EXTT9=
EXTT10=
EXTT11=
PLAYORDER=
